<?xml version="1.0" encoding="UTF-8"?>
<!DOCTYPE svg PUBLIC "-//W3C//DTD SVG 1.1//EN" "http://www.w3.org/Graphics/SVG/1.1/DTD/svg11.dtd">
<!-- Creator: CorelDRAW X7 -->
<svg xmlns="http://www.w3.org/2000/svg" xml:space="preserve" width="367px" height="400px" version="1.1" style="shape-rendering:geometricPrecision; text-rendering:geometricPrecision; image-rendering:optimizeQuality; fill-rule:evenodd; clip-rule:evenodd"
viewBox="0 0 367 400"
 xmlns:xlink="http://www.w3.org/1999/xlink">
 <defs>
  <style type="text/css">
   <![CDATA[
    .str0 {stroke:white;stroke-width:1.63849}
    .fil0 {fill:none}
    .fil2 {fill:none;fill-rule:nonzero}
    .fil3 {fill:white;fill-rule:nonzero}
    .fil1 {fill:white;fill-rule:nonzero}
   ]]>
  </style>
 </defs>
 <g id="Layer_x0020_1">
  <metadata id="CorelCorpID_0Corel-Layer"/>
  <circle class="fil0" cx="184" cy="208" r="169"/>
  <path class="fil1" d="M34 129c0,1 -1,2 -2,1l-31 -18c-1,0 -1,0 -1,-1 0,0 0,0 0,-1l6 -10c2,-3 4,-5 6,-6 3,-1 6,-1 10,1 2,1 4,3 5,5 1,2 1,4 0,6 0,2 -1,4 -1,5l-5 7 14 8c0,0 0,1 0,3l-1 0zm-12 -20c1,-2 1,-3 1,-5 0,-2 -2,-3 -4,-5 -2,-1 -4,-1 -5,0 -2,0 -3,2 -4,3l-4 7 12 7 4 -7zm29 -6c0,0 0,1 -1,1 0,0 -1,0 -1,-1l-27 -23c0,-1 -1,-1 -1,-1 0,-1 1,-1 1,-2l13 -14c0,0 0,-1 1,-1 0,0 0,1 1,1l0 1c1,0 1,0 1,1 0,0 0,0 0,1l-11 12 10 8 9 -11c1,0 1,0 1,0 0,0 1,0 1,0l1 1c0,0 1,1 1,1 0,0 0,1 0,1l-10 11 10 9 11 -13c0,0 0,0 1,0 0,0 0,0 1,1l1 0c0,1 0,1 0,1 0,1 0,1 0,1l-13 15zm21 -22c-1,1 -2,1 -3,1l-22 -29c-1,-1 0,-1 1,-2l1 -1c0,0 0,-1 1,-1 0,0 1,0 1,0l30 10c1,1 2,1 4,2l0 0c-1,-1 -2,-2 -3,-3l-16 -21c0,0 0,-1 1,-2l1 0c1,-1 2,-1 2,-1l23 29c0,1 0,2 -1,3l-1 0c-1,1 -1,1 -2,1l-31 -10c-1,-1 -2,-1 -3,-2l0 0c0,1 1,2 2,3l16 21c1,0 0,1 -1,2l0 0zm45 -50c1,0 1,-1 2,0 0,0 0,0 1,1l6 13c0,1 0,3 -2,4 -2,2 -5,3 -8,5 -5,2 -10,2 -14,1 -4,-2 -7,-6 -10,-12 -5,-12 -2,-21 8,-26 2,0 4,-1 5,-1 2,-1 3,-1 4,-1 2,0 2,1 3,1 0,1 0,1 0,2 0,1 -1,2 -1,2 0,0 0,0 -1,0 -1,0 -2,0 -4,0 -1,0 -2,1 -4,1 -4,2 -7,5 -7,8 -1,3 0,7 2,12 2,4 4,7 7,9 3,2 6,2 11,0 1,-1 2,-1 3,-2 1,-1 2,-1 3,-2l-5 -10 -6 3c0,0 0,0 -1,0 0,-1 0,-1 0,-1l-1 -1c0,-1 0,-1 0,-2 0,0 0,0 0,0l9 -4zm33 12c-5,1 -9,0 -11,-1 -3,-2 -5,-5 -6,-9l-4 -25c-1,-1 0,-1 2,-2l0 0c1,0 2,0 2,1l5 25c0,2 1,3 2,4 1,1 2,2 4,3 2,0 3,0 5,0 2,-1 4,-1 5,-2 2,-1 3,-2 4,-4 0,-1 0,-3 0,-4l-4 -25c-1,-1 0,-2 2,-2l0 0c1,0 2,0 2,1l5 25c1,4 0,7 -2,10 -3,2 -6,4 -11,5zm42 -14c-1,0 -1,-1 -2,-1l-9 -18c0,0 -1,-1 -1,-2l-1 0c1,1 1,2 0,3l0 27c0,1 -1,1 -2,1l-1 0c-1,0 -2,0 -2,-1l1 -37c0,-1 1,-1 2,-1l2 0c1,0 2,0 2,1l10 19c1,1 2,2 2,3 0,-1 1,-2 2,-3l10 -18c1,-1 1,-1 3,-1l2 0c1,0 2,0 2,1l-1 37c0,1 -1,1 -2,1l-1 0c-1,0 -2,-1 -2,-1l1 -27c0,-1 0,-2 0,-3l0 0c-1,1 -1,2 -2,2l-10 17c0,0 -1,1 -1,1l-2 0zm42 18c-5,-1 -8,-4 -10,-7 -1,-3 -2,-6 0,-10l8 -24c0,-1 1,-1 2,0l1 0c1,0 2,1 1,2l-8 24c0,1 0,3 0,4 1,2 1,3 3,4 1,2 2,3 4,3 2,1 4,1 6,1 1,0 3,-1 4,-2 1,-1 2,-2 3,-3l8 -25c0,0 1,-1 2,0l1 0c1,1 2,1 2,2l-9 24c-1,4 -3,6 -6,8 -4,1 -7,1 -12,-1zm44 8c-1,-1 -1,-1 -1,-1l1 -20c0,-1 0,-2 0,-3l0 0c0,0 -1,1 -2,2l-14 23c-1,1 -2,1 -3,0l0 0c-1,-1 -2,-2 -1,-2l19 -31c1,-1 2,-1 3,0l2 1c1,1 1,1 1,2l-1 21c0,1 0,3 -1,4 1,-1 2,-2 4,-2l18 -10c1,0 2,0 3,0l1 1c1,1 2,2 1,3l-19 30c-1,1 -2,1 -3,0l0 0c-1,-1 -2,-1 -1,-2l14 -23c1,-1 1,-2 2,-2l0 0c-1,0 -2,1 -3,1l-17 9c-1,0 -1,0 -2,0l-1 -1zm16 24c-1,-1 -2,-2 -1,-2 0,0 0,-1 1,-1l35 -15c1,-1 1,0 2,1l1 1c1,1 2,1 1,2l-17 35c0,0 0,0 -1,0 0,1 -1,0 -2,-1l0 0c-1,-1 -1,-2 -1,-2l4 -9 -11 -12 -9 4c0,1 -1,0 -2,-1l0 0zm24 5l8 -16c1,0 1,-1 2,-2l0 0c-1,0 -2,1 -3,1l-16 7 9 10zm1 23c-1,-2 -1,-2 0,-3l31 -20c1,0 1,0 2,2l1 1c0,0 0,0 0,1 0,0 0,1 0,1l-13 29c0,1 -1,2 -1,3l0 0c0,0 1,-1 3,-2l21 -14c1,0 2,0 3,2l0 0c1,1 1,2 0,3l-31 19c-1,1 -1,0 -2,-1l-1 -1c0,-1 0,-1 0,-2l13 -29c0,-2 1,-3 2,-4l0 0c-1,1 -2,1 -3,2l-22 14c-1,1 -2,0 -3,-1l0 0z"/>
  <path class="fil1" d="M148 119c-4,0 -7,-1 -9,-3 -2,-2 -3,-6 -3,-10 0,-5 1,-8 3,-10 2,-2 5,-4 9,-4 4,0 7,2 9,4 2,2 3,5 3,10 0,4 -1,8 -3,10 -2,2 -5,3 -9,3zm0 -4c2,0 4,-1 5,-2 1,-2 2,-4 2,-7 0,-3 -1,-5 -2,-7 -1,-2 -3,-2 -5,-2 -2,0 -4,0 -5,2 -1,2 -2,4 -2,7 0,3 1,5 2,7 1,1 3,2 5,2z"/>
  <path id="1" class="fil1" d="M166 119c0,0 -1,0 -1,0 0,0 -1,-1 -1,-1l0 -24c0,0 1,-1 1,-1 0,0 0,0 1,0l8 0c2,0 4,0 6,1 2,1 2,4 2,7 0,2 0,3 -1,5 -1,1 -2,2 -4,2 -1,1 -2,1 -3,1l-5 0 0 9c0,1 0,1 -2,1l-1 0zm8 -15c1,0 1,0 2,0 1,-1 1,-2 1,-3 0,-2 0,-3 -1,-3 -1,-1 -2,-1 -3,-1l-4 0 0 7 5 0z"/>
  <path id="2" class="fil1" d="M188 119c-1,0 -1,0 -1,0 -1,0 -1,-1 -1,-1l0 -24c0,0 0,-1 1,-1 0,0 0,0 1,0l13 0c0,0 0,0 1,0 0,0 0,1 0,1l0 1c0,1 0,1 0,2 -1,0 -1,0 -1,0l-10 0 0 6 9 0c0,0 0,1 1,1 0,0 0,0 0,1l0 1c0,1 0,1 0,1 -1,1 -1,1 -1,1l-9 0 0 7 10 0c0,0 0,0 1,0 0,0 0,1 0,1l0 1c0,1 0,1 0,2 -1,0 -1,0 -1,0l-13 0z"/>
  <path id="3" class="fil1" d="M209 119c-2,0 -2,0 -2,-1l0 -24c0,-1 0,-1 2,-1l1 0c0,0 1,0 1,0 1,0 1,0 1,0l10 15c0,1 1,2 1,3l0 -1c0,0 0,-1 0,-2l0 -14c0,-1 1,-1 2,-1l1 0c1,0 2,0 2,1l0 24c0,1 -1,1 -2,1l-1 0c-1,0 -1,0 -1,0 -1,0 -1,0 -1,-1l-10 -15c-1,-1 -1,-1 -2,-2l0 0c0,1 0,2 0,3l0 14c0,1 0,1 -2,1l0 0z"/>
  <path id="4" class="fil1" d="M63 162c-1,0 -2,0 -2,-1l0 -24c0,0 0,-1 0,-1 1,0 1,0 2,0l7 0c3,0 5,0 7,2 1,1 2,3 2,5 0,1 -1,3 -1,4 -1,1 -2,1 -4,2l0 0c1,0 2,1 2,1 1,1 1,2 1,3l4 8c0,0 0,1 0,1 0,0 -1,0 -2,0l-1 0c-2,0 -2,0 -2,0l-3 -8c-1,-1 -1,-1 -2,-2 -1,0 -1,0 -3,0l-2 0 0 9c0,1 -1,1 -2,1l-1 0zm7 -15c1,0 2,0 3,-1 0,-1 1,-1 1,-2 0,-2 -1,-2 -1,-3 -1,-1 -2,-1 -3,-1l-4 0 0 7 4 0z"/>
  <path id="5" class="fil1" d="M86 162c-1,0 -1,0 -1,0 -1,0 -1,-1 -1,-1l0 -24c0,0 0,-1 1,-1 0,0 0,0 1,0l13 0c0,0 1,0 1,0 0,1 0,1 0,2l0 1c0,0 0,1 0,1 0,0 -1,0 -1,0l-10 0 0 7 9 0c0,0 0,0 1,0 0,0 0,1 0,1l0 1c0,1 0,1 0,2 -1,0 -1,0 -1,0l-9 0 0 7 10 0c0,0 1,0 1,0 0,1 0,1 0,2l0 1c0,0 0,1 0,1 0,0 -1,0 -1,0l-13 0z"/>
  <path id="6" class="fil1" d="M116 163c-4,0 -7,-2 -9,-4 -2,-2 -3,-5 -3,-10 0,-9 4,-13 12,-13 1,0 3,0 4,0 1,0 2,1 3,1 0,0 1,1 1,1 0,0 0,1 -1,1 0,1 0,1 0,2 -1,0 -1,0 -1,0 0,0 -1,0 -1,0 -1,0 -1,-1 -2,-1 -1,0 -2,0 -3,0 -2,0 -4,1 -5,2 -2,2 -2,4 -2,7 0,3 0,6 2,7 1,2 3,2 5,2 1,0 2,0 3,0 1,0 2,-1 2,-1 1,0 1,0 1,0 1,0 1,0 1,0 0,1 1,1 1,2 0,0 0,0 0,1 0,0 0,1 -1,1 -1,1 -2,1 -3,1 -2,0 -3,1 -4,1z"/>
  <path id="7" class="fil1" d="M130 162c-1,0 -2,0 -2,-1l0 -24c0,0 0,-1 0,-1 1,0 1,0 1,0l8 0c3,0 5,0 7,2 1,1 2,3 2,5 0,1 -1,3 -1,4 -1,1 -2,1 -4,2l0 0c1,0 2,1 2,1 1,1 1,2 1,3l4 8c0,0 0,1 0,1 0,0 -1,0 -2,0l-1 0c-2,0 -2,0 -2,0l-3 -8c-1,-1 -1,-1 -2,-2 -1,0 -2,0 -3,0l-2 0 0 9c0,1 -1,1 -2,1l-1 0zm7 -15c1,0 2,0 3,-1 0,-1 1,-1 1,-2 0,-2 -1,-2 -1,-3 -1,-1 -2,-1 -3,-1l-4 0 0 7 4 0z"/>
  <path id="8" class="fil1" d="M162 163c-4,0 -6,-1 -8,-3 -2,-1 -3,-4 -3,-6l0 -17c0,-1 1,-1 2,-1l1 0c1,0 2,0 2,1l0 16c0,2 0,3 1,4 2,1 3,1 5,1 1,0 3,0 4,-1 1,-1 1,-2 1,-4l0 -16c0,-1 1,-1 2,-1l1 0c2,0 2,0 2,1l0 17c0,2 -1,5 -2,6 -2,2 -5,3 -8,3z"/>
  <path id="9" class="fil1" d="M180 162c-1,0 -2,0 -2,-1l0 -24c0,-1 1,-1 2,-1l1 0c1,0 2,0 2,1l0 24c0,1 -1,1 -2,1l-1 0z"/>
  <path id="10" class="fil1" d="M196 162c-2,0 -2,0 -2,-1l0 -21 -7 0c0,0 0,0 -1,0 0,-1 0,-1 0,-1l0 -1c0,-1 0,-1 0,-2 1,0 1,0 1,0l18 0c0,0 1,0 1,0 0,1 0,1 0,2l0 1c0,0 0,0 0,1 0,0 -1,0 -1,0l-6 0 0 21c0,1 -1,1 -2,1l-1 0z"/>
  <path id="11" class="fil1" d="M222 156c-1,0 -1,-1 -2,-1l-5 -9c0,-1 0,-1 -1,-2l0 0c0,0 0,1 0,2l0 15c0,1 -1,1 -2,1l-1 0c-1,0 -2,0 -2,-1l0 -24c0,-1 1,-1 2,-1l2 0c1,0 2,0 2,1l7 11c0,1 0,1 0,2 0,-1 1,-1 1,-2l7 -11c0,-1 1,-1 2,-1l1 0c2,0 2,0 2,1l0 24c0,1 0,1 -2,1l0 0c-2,0 -2,0 -2,-1l0 -15c0,-1 0,-1 0,-2l-1 0c0,1 0,1 0,2l-6 9c0,0 0,1 -1,1l-1 0z"/>
  <path id="12" class="fil1" d="M243 162c-1,0 -1,0 -1,0 -1,0 -1,-1 -1,-1l0 -24c0,0 0,-1 1,-1 0,0 0,0 1,0l13 0c0,0 1,0 1,0 0,1 0,1 0,2l0 1c0,0 0,0 0,1 0,0 -1,0 -1,0l-10 0 0 7 9 0c0,0 1,0 1,0 0,0 0,1 0,1l0 1c0,1 0,1 0,2 0,0 -1,0 -1,0l-9 0 0 7 10 0c0,0 1,0 1,0 0,1 0,1 0,2l0 1c0,0 0,1 0,1 0,0 -1,0 -1,0l-13 0z"/>
  <path id="13" class="fil1" d="M264 162c-2,0 -2,0 -2,-1l0 -24c0,-1 0,-1 2,-1l1 0c1,0 1,0 1,0 1,0 1,0 1,1l10 14c0,1 1,2 1,3l0 0c0,-1 0,-2 0,-3l0 -14c0,-1 1,-1 2,-1l1 0c1,0 2,0 2,1l0 24c0,1 -1,1 -2,1l-1 0c-1,0 -1,0 -1,0 -1,0 -1,0 -1,0l-10 -15c-1,-1 -1,-2 -1,-3l-1 0c1,1 1,2 1,3l0 14c0,1 -1,1 -2,1l-1 0z"/>
  <path id="14" class="fil1" d="M296 162c-1,0 -2,0 -2,-1l0 -21 -7 0c0,0 0,0 0,0 0,-1 -1,-1 -1,-2l0 0c0,-1 1,-1 1,-2 0,0 0,0 0,0l18 0c1,0 1,0 1,0 0,1 0,1 0,2l0 0c0,1 0,1 0,2 0,0 0,0 -1,0l-6 0 0 21c0,1 -1,1 -2,1l-1 0z"/>
  <path class="fil2 str0" d="M58 266c-2,0 -3,-1 -3,-2l0 -37c0,-1 1,-2 3,-2l2 0c2,0 4,1 4,2l0 14 15 0 0 -14c0,-1 1,-2 4,-2l2 0c2,0 3,1 3,2l0 37c0,1 -1,2 -3,2l-2 0c-3,0 -4,-1 -4,-2l0 -15 -15 0 0 15c0,1 -2,2 -4,2l-2 0z"/>
  <path id="1" class="fil2 str0" d="M100 266c-2,0 -4,-1 -4,-2l0 -37c0,-1 2,-2 4,-2l2 0c2,0 3,1 3,2l0 37c0,1 -1,2 -3,2l-2 0z"/>
  <path id="2" class="fil2 str0" d="M133 256c-1,0 -2,0 -3,-1l-7 -13c0,-1 -1,-1 -1,-2l0 0 0 3 0 21c0,1 -1,2 -4,2l-1 0c-3,0 -4,-1 -4,-2l0 -37c0,-1 1,-2 4,-2l3 0c1,0 3,1 3,2l10 17 0 1 1 -1 10 -17c0,-1 2,-2 3,-2l3 0c3,0 4,1 4,2l0 37c0,1 -1,2 -4,2l-1 0c-3,0 -4,-1 -4,-2l0 -21 0 -3 0 0c0,1 -1,1 -1,2l-7 13c-1,1 -2,1 -3,1l-1 0z"/>
  <path id="3" class="fil2 str0" d="M161 266c-2,0 -3,-1 -3,-1 0,-1 0,-1 0,-1l13 -38c0,0 1,-1 3,-1l3 0c2,0 3,1 3,1l13 38c0,0 0,0 0,1 0,0 -1,1 -2,1l-3 0c-2,0 -3,-1 -3,-1l-3 -7 -13 0 -3 7c0,0 -1,1 -2,1l-3 0zm19 -16l-3 -10c-1,-1 -1,-2 -1,-4l0 0c-1,0 -1,1 -1,1 0,1 0,2 0,3l-4 10 9 0z"/>
  <path id="4" class="fil2 str0" d="M206 266c-2,0 -4,-1 -4,-2l0 -31 -9 0c0,0 -1,0 -1,-1 0,0 0,-1 0,-2l0 -2c0,-1 0,-2 0,-2 0,-1 1,-1 1,-1l28 0c0,0 1,0 1,1 0,0 0,1 0,2l0 2c0,1 0,2 0,2 0,1 -1,1 -1,1l-10 0 0 31c0,1 -1,2 -3,2l-2 0z"/>
  <path id="5" class="fil2 str0" d="M230 266c-2,0 -3,-1 -3,-2l0 -37c0,-1 1,-2 3,-2l2 0c2,0 4,1 4,2l0 37c0,1 -2,2 -4,2l-2 0z"/>
  <path id="6" class="fil2 str0" d="M247 266c-3,0 -4,-1 -4,-2l0 -37c0,-1 1,-2 4,-2l2 0c2,0 3,1 3,2l0 15 0 1 11 -17c0,-1 1,-1 3,-1l3 0c2,0 3,0 3,1 0,0 0,1 -1,1l-11 17 13 20c0,0 0,1 0,1 0,1 -1,1 -3,1l-3 0c-2,0 -3,0 -4,-1l-11 -18 0 0 0 17c0,1 -1,2 -3,2l-2 0z"/>
  <path id="7" class="fil2 str0" d="M281 266c-3,0 -4,-1 -4,-1 0,-1 0,-1 0,-1l13 -38c1,0 2,-1 3,-1l4 0c1,0 3,1 3,1l13 38c0,0 0,0 0,1 0,0 -1,1 -3,1l-3 0c-2,0 -3,-1 -3,-1l-2 -7 -14 0 -2 7c-1,0 -1,1 -3,1l-2 0zm18 -16l-3 -10c0,-1 -1,-2 -1,-4l0 0c0,0 0,1 0,1 -1,1 -1,2 -1,3l-3 10 8 0z"/>
  <path id="8" class="fil2 str0" d="M152 327c-6,0 -10,-2 -13,-4 -3,-3 -4,-6 -4,-10l0 -26c0,-1 1,-2 3,-2l2 0c3,0 4,1 4,2l0 25c0,2 1,4 2,5 2,1 3,2 6,2 2,0 4,-1 5,-2 2,-1 3,-3 3,-5l0 -25c0,-1 1,-2 3,-2l2 0c2,0 4,1 4,2l0 26c0,4 -2,7 -5,10 -3,2 -7,4 -12,4z"/>
  <path id="9" class="fil2 str0" d="M187 326c-2,0 -3,0 -3,-2l0 -31 -9 0c-1,0 -2,0 -2,-1 0,0 0,-1 0,-2l0 -2c0,-1 0,-1 0,-2 0,0 1,0 2,0l27 0c1,0 1,0 1,0 1,1 1,1 1,2l0 2c0,1 0,2 -1,2 0,1 0,1 -1,1l-9 0 0 31c0,2 -1,2 -4,2l-2 0z"/>
  <path id="10" class="fil2 str0" d="M219 326c-2,0 -3,0 -3,-2l0 -17 -12 -19c0,-1 0,-1 0,-1 0,-1 1,-2 3,-2l3 0c2,0 3,1 3,2l8 12 7 -12c0,-1 1,-2 3,-2l2 0c3,0 4,1 4,2 0,0 0,1 -1,1l-11 19 0 17c0,2 -1,2 -4,2l-2 0z"/>
  <path class="fil3" d="M77 363c-1,0 -1,0 0,-1 0,-1 0,-2 1,-2 0,-1 0,-1 0,-1l16 -5c1,0 2,-1 3,-2 1,-1 1,-2 1,-3 -1,-1 -1,-1 -2,-2 -1,-1 -2,-1 -2,-1 -1,0 -1,0 -2,0 -1,0 -1,0 -1,0 -1,-1 -1,-1 -1,-2 0,-1 0,-1 0,-2 1,-1 2,-1 4,-1 2,1 3,1 5,2 3,2 4,4 5,6 0,2 0,4 -2,6 -1,2 -3,3 -5,4l-12 4 8 5c0,0 1,1 0,1 0,0 0,1 0,2l0 0c-1,1 -1,1 -2,1 0,0 0,0 -1,0l-13 -9zm31 18c-2,-1 -4,-2 -4,-4 -1,-1 -2,-3 -1,-6 0,-2 1,-5 2,-7 1,-3 2,-5 4,-7 2,-2 3,-3 5,-3 2,-1 4,-1 6,0 1,1 3,2 4,4 0,2 1,4 1,6 -1,2 -1,5 -3,7 -1,3 -2,6 -4,7 -1,2 -3,3 -5,3 -2,1 -4,1 -5,0zm2 -4c1,0 2,0 3,-2 1,-1 3,-3 4,-6 1,-3 2,-5 2,-7 0,-2 0,-3 -1,-3 -1,-1 -3,-1 -4,1 -1,1 -2,3 -4,6 -1,3 -2,5 -2,7 0,2 1,3 2,4zm15 11c0,-1 0,-1 0,-2 0,-1 0,-2 0,-2 0,-1 0,-1 0,-1l14 -9c1,-1 2,-2 2,-4 0,-1 0,-2 0,-2 -1,-1 -2,-2 -3,-2 0,0 -1,0 -2,0 0,0 -1,0 -2,0 0,0 -1,1 -1,1 0,-1 -1,-1 -1,-2 0,-1 0,-1 0,-2 0,-1 1,-2 3,-2 2,0 4,0 6,1 2,0 4,2 5,4 1,1 2,3 1,6 -1,2 -2,4 -4,6l-10 7 9 2c1,0 1,1 1,1 0,0 0,1 0,1l0 1c-1,1 -1,1 -1,2 0,0 -1,0 -1,0l-16 -4zm35 7c-2,0 -4,-1 -5,-2 -1,-1 -2,-3 -3,-5 0,-3 0,-5 0,-8 0,-3 1,-6 2,-8 1,-2 2,-4 4,-5 2,-1 3,-1 5,-1 2,1 4,1 5,3 2,1 3,3 3,5 1,2 1,5 0,8 0,3 -1,6 -2,8 -1,2 -2,3 -4,4 -1,1 -3,2 -5,1zm0 -4c2,0 3,-1 3,-3 1,-1 2,-4 2,-7 1,-3 1,-5 0,-7 0,-2 -1,-3 -2,-3 -1,0 -2,1 -3,2 -1,2 -1,4 -2,7 0,4 0,6 0,8 1,2 1,2 2,3zm17 9c-2,0 -2,-1 -2,-1 0,0 0,0 0,-1l13 -29c0,-1 1,-1 2,-1l1 0c1,0 2,0 2,1 0,0 0,0 0,0l-13 30c0,0 -1,1 -3,1l0 0zm22 -4c0,0 -1,0 -1,-1 0,-1 -1,-2 -1,-2 0,-1 0,-1 0,-1l9 -14c1,-1 1,-3 1,-4 0,-1 0,-2 -1,-2 -1,-1 -2,-1 -3,-1 -1,0 -1,1 -2,1 0,0 -1,1 -1,1 -1,0 -1,1 -1,1 -1,0 -2,-1 -2,-1 -1,-1 -1,-1 -1,-2 0,-1 0,-2 2,-3 2,-1 3,-1 6,-2 2,0 5,0 6,2 2,1 3,3 3,5 1,3 0,5 -1,7l-7 11 10 -2c0,0 0,0 1,1 0,0 0,1 0,1l0 1c0,1 0,1 0,2 0,0 0,0 -1,0l-16 2zm35 -6c-2,1 -4,1 -5,0 -2,-1 -4,-2 -5,-4 -1,-2 -2,-4 -3,-7 -1,-3 -1,-6 -1,-8 0,-3 1,-5 2,-6 1,-2 2,-3 4,-3 2,-1 4,-1 6,0 1,1 3,2 4,4 2,2 3,4 3,7 1,3 2,6 1,8 0,3 0,4 -1,6 -1,2 -3,3 -5,3zm-1 -5c1,0 1,-1 2,-3 0,-1 -1,-4 -1,-7 -1,-3 -2,-5 -3,-7 -1,-1 -2,-2 -4,-2 -1,1 -1,2 -1,4 -1,1 0,4 1,7 1,3 1,5 3,7 1,1 2,2 3,1zm19 -1c0,0 -1,0 -1,-1 -1,0 -1,-1 -2,-2 0,0 0,0 0,0l4 -16c1,-2 1,-3 0,-4 0,-1 -1,-2 -2,-2 -1,0 -2,0 -3,0 0,1 -1,1 -1,1 -1,1 -1,1 -2,2 0,0 0,1 0,1 -1,0 -1,0 -2,0 -1,-1 -1,-1 -2,-2 0,-1 0,-2 2,-3 1,-2 2,-3 4,-4 3,-1 5,-1 7,0 2,0 4,2 5,4 1,2 1,5 0,7l-3 12 9 -4c0,0 0,0 1,0 0,0 0,1 1,1l0 1c0,1 0,1 0,2 0,0 0,0 0,0l-15 7zm25 -12c-1,1 -1,1 -1,0 -1,0 -1,0 -1,-1l-1 0c0,-1 0,-1 0,-2 0,0 0,-1 0,-1l5 -3 -10 -15 -4 3c-1,1 -1,1 -2,0 0,0 -1,-1 -1,-2 -1,0 -1,-1 0,-1l8 -7c0,-1 0,-1 1,-1 0,0 0,0 1,1l12 19 4 -2c0,-1 0,-1 1,0 0,0 0,0 1,1l0 0c1,1 1,1 1,2 0,0 0,1 -1,1l-13 8z"/>
  <path class="fil1" d="M92 207c0,0 -1,-1 -1,-1 0,0 -1,0 -1,-1l0 -24c0,0 1,0 1,-1 0,0 0,0 1,0l8 0c2,0 4,1 6,2 2,1 2,3 2,6 0,2 0,4 -1,5 -1,1 -2,2 -4,2 -1,1 -2,1 -3,1l-5 0 0 9c0,1 0,2 -2,2l-1 0zm8 -15c1,0 1,0 2,-1 1,-1 1,-2 1,-3 0,-1 0,-2 -1,-3 -1,0 -2,-1 -3,-1l-4 0 0 8 5 0z"/>
  <path id="1" class="fil1" d="M114 206c-1,0 -1,0 -1,0 -1,0 -1,0 -1,-1l0 -24c0,0 0,0 1,-1 0,0 0,0 1,0l13 0c0,0 0,0 1,0 0,1 0,1 0,2l0 1c0,0 0,1 0,1 -1,0 -1,0 -1,0l-10 0 0 7 9 0c0,0 0,0 1,0 0,0 0,1 0,1l0 1c0,1 0,1 0,2 -1,0 -1,0 -1,0l-9 0 0 7 10 0c0,0 1,0 1,1 0,0 0,0 0,1l0 1c0,0 0,1 0,1 0,0 -1,0 -1,0l-13 0z"/>
  <path id="2" class="fil1" d="M135 207c-2,0 -2,-1 -2,-2l0 -24c0,-1 0,-1 2,-1l1 0c1,0 1,0 1,0 1,0 1,0 1,1l10 15c0,0 1,1 1,2l0 0c0,-1 0,-2 0,-3l0 -14c0,-1 1,-1 2,-1l1 0c1,0 2,0 2,1l0 24c0,1 -1,2 -2,2l-1 0c-1,0 -1,-1 -1,-1 -1,0 -1,0 -1,0l-10 -15c-1,-1 -1,-2 -2,-3l0 0c0,1 0,2 0,3l0 14c0,1 0,2 -2,2l0 0z"/>
  <path id="3" class="fil1" d="M178 192c1,0 1,0 1,0 0,1 1,1 1,1l0 11c0,1 -1,2 -3,2 -2,0 -4,1 -6,1 -4,0 -7,-1 -9,-4 -2,-2 -3,-5 -3,-10 0,-9 4,-13 12,-13 1,0 3,0 4,0 1,0 2,1 3,1 1,0 1,1 1,1 0,1 0,1 0,1 -1,1 -1,1 -1,2 -1,0 -1,0 -1,0 0,0 0,0 -1,0 -1,0 -1,-1 -2,-1 -1,0 -2,0 -3,0 -2,0 -4,1 -5,2 -2,2 -2,4 -2,7 0,6 2,9 7,9 1,0 2,0 4,0l0 -6 -4 0c-1,0 -1,0 -1,0 0,0 0,-1 0,-1l0 -1c0,-1 0,-1 0,-1 0,-1 0,-1 1,-1l7 0z"/>
  <path id="4" class="fil1" d="M196 207c-4,0 -6,-1 -8,-3 -2,-1 -3,-3 -3,-6l0 -17c0,-1 1,-1 2,-1l1 0c1,0 2,0 2,1l0 17c0,1 0,2 1,3 2,1 3,1 5,1 1,0 3,0 4,-1 1,-1 1,-2 1,-3l0 -17c0,-1 1,-1 2,-1l1 0c2,0 2,0 2,1l0 17c0,3 -1,5 -2,6 -2,2 -5,3 -8,3z"/>
  <path id="5" class="fil1" d="M214 206c-1,0 -2,0 -2,-1l0 -24c0,0 0,0 0,-1 1,0 1,0 1,0l7 0c4,0 6,1 7,2 2,1 3,3 3,5 0,1 -1,3 -1,4 -1,1 -2,2 -4,2l0 0c1,0 1,1 2,2 0,0 1,1 1,2l3 8c1,0 1,1 1,1 0,0 -1,0 -2,0l-2 0c-1,0 -1,0 -1,0l-3 -8c-1,-1 -1,-1 -2,-2 -1,0 -2,0 -3,0l-2 0 0 9c0,1 -1,1 -2,1l-1 0zm7 -15c1,0 2,0 3,-1 0,0 1,-1 1,-2 0,-1 -1,-2 -1,-3 -1,0 -2,-1 -3,-1l-4 0 0 7 4 0z"/>
  <path id="6" class="fil1" d="M246 207c-4,0 -7,-1 -8,-3 -2,-1 -3,-3 -3,-6l0 -17c0,-1 0,-1 2,-1l1 0c1,0 2,0 2,1l0 17c0,1 0,2 1,3 1,1 3,1 5,1 1,0 3,0 4,-1 1,-1 1,-2 1,-3l0 -17c0,-1 1,-1 2,-1l1 0c2,0 2,0 2,1l0 17c0,3 -1,5 -3,6 -1,2 -4,3 -7,3z"/>
  <path id="7" class="fil1" d="M269 207c-2,0 -4,0 -5,-1 -1,0 -2,-1 -3,-1 -1,-1 -1,-1 -1,-1 0,-1 0,-2 1,-2 0,-1 1,-1 1,-1 0,0 0,0 1,0 1,1 1,1 2,1 1,0 2,0 3,0 1,0 2,0 3,0 0,-1 1,-2 1,-3 0,0 0,-1 -1,-2 0,0 -1,0 -1,-1 -1,0 -2,0 -3,-1l-1 0c-1,-1 -2,-1 -3,-2 -1,-1 -1,-1 -2,-2 0,-1 0,-2 0,-4 0,-1 0,-3 1,-4 0,-1 2,-2 3,-2 1,-1 3,-1 4,-1 1,0 2,0 4,0 1,0 1,1 2,1 1,1 1,1 1,1 0,1 0,1 -1,2 0,1 -1,1 -1,1 0,0 0,0 -1,0 0,0 0,0 0,0 -1,-1 -2,-1 -3,-1 -2,0 -3,0 -3,1 -1,0 -1,1 -1,2 0,1 0,1 0,2 1,0 1,0 2,1 0,0 1,0 2,1 1,0 3,1 4,1 0,1 1,2 2,3 1,1 1,2 1,4 0,2 -1,4 -2,6 -2,1 -4,2 -6,2z"/>
 </g>
</svg>
